<svg width="20" height="20" viewBox="0 0 20 20" fill="none" xmlns="http://www.w3.org/2000/svg">
<path d="M6.07143 8.89181C6.02381 8.77096 6 8.64035 6 8.5C6 8.35965 6.02381 8.2271 6.07143 8.10234C6.12271 7.98148 6.19048 7.87622 6.27473 7.78655C6.36264 7.69688 6.4652 7.62671 6.58242 7.57602C6.69963 7.52534 6.82784 7.5 6.96703 7.5C7.10256 7.5 7.22894 7.52534 7.34615 7.57602C7.46337 7.62671 7.56593 7.69688 7.65385 7.78655C7.74176 7.87622 7.80952 7.98148 7.85714 8.10234C7.90843 8.2271 7.93407 8.35965 7.93407 8.5C7.93407 8.64035 7.90843 8.77096 7.85714 8.89181C7.80952 9.01267 7.74176 9.11793 7.65385 9.2076C7.56593 9.29727 7.46337 9.36745 7.34615 9.41813C7.22894 9.47271 7.10256 9.5 6.96703 9.5C6.82784 9.5 6.69963 9.47271 6.58242 9.41813C6.4652 9.36745 6.36264 9.29727 6.27473 9.2076C6.19048 9.11793 6.12271 9.01267 6.07143 8.89181Z" fill="#272525" style="fill:#272525;fill:color(display-p3 0.1529 0.1451 0.1451);fill-opacity:1;"/>
<path d="M12.1374 8.89181C12.0897 8.77096 12.0659 8.64035 12.0659 8.5C12.0659 8.35965 12.0897 8.2271 12.1374 8.10234C12.1886 7.98148 12.2564 7.87622 12.3407 7.78655C12.4286 7.69688 12.5311 7.62671 12.6484 7.57602C12.7656 7.52534 12.8938 7.5 13.033 7.5C13.1685 7.5 13.2949 7.52534 13.4121 7.57602C13.5293 7.62671 13.6319 7.69688 13.7198 7.78655C13.8077 7.87622 13.8755 7.98148 13.9231 8.10234C13.9744 8.2271 14 8.35965 14 8.5C14 8.64035 13.9744 8.77096 13.9231 8.89181C13.8755 9.01267 13.8077 9.11793 13.7198 9.2076C13.6319 9.29727 13.5293 9.36745 13.4121 9.41813C13.2949 9.47271 13.1685 9.5 13.033 9.5C12.8938 9.5 12.7656 9.47271 12.6484 9.41813C12.5311 9.36745 12.4286 9.29727 12.3407 9.2076C12.2564 9.11793 12.1886 9.01267 12.1374 8.89181Z" fill="#272525" style="fill:#272525;fill:color(display-p3 0.1529 0.1451 0.1451);fill-opacity:1;"/>
<path d="M9.1044 8.89181C9.05678 8.77096 9.03297 8.64035 9.03297 8.5C9.03297 8.35965 9.05678 8.2271 9.1044 8.10234C9.15568 7.98148 9.22344 7.87622 9.30769 7.78655C9.3956 7.69688 9.49817 7.62671 9.61539 7.57602C9.7326 7.52534 9.86081 7.5 10 7.5C10.1355 7.5 10.2619 7.52534 10.3791 7.57602C10.4963 7.62671 10.5989 7.69688 10.6868 7.78655C10.7747 7.87622 10.8425 7.98148 10.8901 8.10234C10.9414 8.2271 10.967 8.35965 10.967 8.5C10.967 8.64035 10.9414 8.77096 10.8901 8.89181C10.8425 9.01267 10.7747 9.11793 10.6868 9.2076C10.5989 9.29727 10.4963 9.36745 10.3791 9.41813C10.2619 9.47271 10.1355 9.5 10 9.5C9.86081 9.5 9.7326 9.47271 9.61539 9.41813C9.49817 9.36745 9.3956 9.29727 9.30769 9.2076C9.22344 9.11793 9.15568 9.01267 9.1044 8.89181Z" fill="#272525" style="fill:#272525;fill:color(display-p3 0.1529 0.1451 0.1451);fill-opacity:1;"/>
<path fill-rule="evenodd" clip-rule="evenodd" d="M4 19C4.68342 18.5453 5.34922 18.0615 6 17.5566C7.06307 16.7318 8.08604 15.8507 9.08018 14.9484C9.51801 14.9524 9.959 14.9524 10.4 14.9524C15.6 14.9524 20 14.9524 20 8.47619C20 2.00001 16.4 2 10.4 2C4.4 2 0 2 0 8.47619C0 12.1137 1.64047 13.7081 4 14.407V19ZM6 14.9861V12.9135L4.568 12.4893C3.66336 12.2214 3.08828 11.8413 2.71553 11.344C2.34077 10.8441 2 9.99775 2 8.47619C2 7.06643 2.24193 6.22086 2.52932 5.70387C2.7941 5.22754 3.17011 4.8963 3.75176 4.64178C4.38136 4.36628 5.23987 4.18853 6.40433 4.09473C7.56468 4.00127 8.87891 4 10.4 4C11.9247 4 13.1819 4.00149 14.2605 4.09389C15.3432 4.18664 16.0695 4.35999 16.5691 4.60507C17.0063 4.81958 17.3072 5.10466 17.5362 5.58809C17.7932 6.13079 18 7.01717 18 8.47619C18 9.88397 17.7588 10.7399 17.473 11.267C17.2078 11.7562 16.8408 12.0822 16.3103 12.3277C15.7351 12.5938 14.9579 12.7669 13.9175 12.859C12.8784 12.9509 11.7212 12.9524 10.4 12.9524C9.95745 12.9524 9.52551 12.9524 9.09823 12.9485L8.3156 12.9415L7.73605 13.4674C7.16229 13.9882 6.58458 14.4963 6 14.9861Z" fill="#272525" style="fill:#272525;fill:color(display-p3 0.1529 0.1451 0.1451);fill-opacity:1;"/>
</svg>
