<svg width="21" height="20" viewBox="0 0 21 20" fill="none" xmlns="http://www.w3.org/2000/svg">
<path d="M13.2828 3C12.1365 2.99954 11.0094 3.294 10.0098 3.85505C8.98594 3.28276 7.8302 2.98813 6.65727 3.00038C5.48435 3.01263 4.33501 3.33134 3.32328 3.92489C2.31155 4.51845 1.4726 5.36621 0.889643 6.38409C0.30669 7.40196 0 8.55456 0 9.72755C0 10.9005 0.30669 12.0531 0.889643 13.071C1.4726 14.0889 2.31155 14.9367 3.32328 15.5302C4.33501 16.1238 5.48435 16.4425 6.65727 16.4547C7.8302 16.467 8.98594 16.1723 10.0098 15.6001C10.9072 16.1003 11.9073 16.3883 12.9333 16.4419C13.9593 16.4955 14.984 16.3134 15.9286 15.9095C16.8733 15.5055 17.7128 14.8905 18.3829 14.1117C19.0529 13.3329 19.5356 12.4108 19.7939 11.4165C20.0522 10.4221 20.0793 9.38169 19.873 8.37522C19.6667 7.36874 19.2326 6.4229 18.6039 5.61029C17.9753 4.79767 17.1688 4.13989 16.2464 3.68741C15.324 3.23494 14.3102 2.9998 13.2828 3.00005V3ZM8.25527 14.1826C7.76776 14.357 7.25463 14.4491 6.7369 14.4551C5.48308 14.4551 4.28061 13.957 3.39402 13.0704C2.50744 12.1839 2.00936 10.9814 2.00936 9.72757C2.00936 8.47375 2.50744 7.27128 3.39402 6.3847C4.28061 5.49811 5.48308 5.00003 6.7369 5.00003C7.25463 5.00602 7.76777 5.09812 8.25527 5.27256C7.16044 6.49822 6.55527 8.08412 6.55527 9.72756C6.55527 11.371 7.16044 12.9569 8.25527 14.1826V14.1826ZM10.0098 13.1252C9.55015 12.6867 9.18422 12.1595 8.93419 11.5755C8.68417 10.9915 8.55526 10.3628 8.55526 9.72755C8.55526 9.09227 8.68417 8.46359 8.93419 7.87959C9.18422 7.29558 9.55015 6.76838 10.0098 6.3299C10.4695 6.76838 10.8355 7.29558 11.0855 7.87959C11.3355 8.46359 11.4644 9.09227 11.4644 9.72755C11.4644 10.3628 11.3355 10.9915 11.0855 11.5755C10.8355 12.1595 10.4695 12.6867 10.0098 13.1252ZM13.2828 14.4551C12.7651 14.4491 12.2519 14.357 11.7644 14.1826C12.8593 12.9569 13.4644 11.371 13.4644 9.72756C13.4644 8.08412 12.8593 6.49822 11.7644 5.27256C12.2519 5.09812 12.7651 5.00602 13.2828 5.00003C14.5366 5.00003 15.7391 5.49811 16.6257 6.3847C17.5123 7.27128 18.0103 8.47375 18.0103 9.72757C18.0103 10.9814 17.5123 12.1839 16.6257 13.0704C15.7391 13.957 14.5366 14.4551 13.2828 14.4551V14.4551Z" fill="#272525" style="fill:#272525;fill:color(display-p3 0.1529 0.1451 0.1451);fill-opacity:1;"/>
</svg>
