<svg width="30" height="30" viewBox="0 0 30 30" fill="none" xmlns="http://www.w3.org/2000/svg">
<path d="M24.4547 13.1634C24.4547 13.8077 23.9256 14.3301 23.2729 14.3301C22.6202 14.3301 22.0911 13.8077 22.0911 13.1634C22.0911 12.5191 22.6202 11.9967 23.2729 11.9967C23.9256 11.9967 24.4547 12.5191 24.4547 13.1634Z" fill="#272525" style="fill:#272525;fill:color(display-p3 0.1529 0.1451 0.1451);fill-opacity:1;"/>
<path fill-rule="evenodd" clip-rule="evenodd" d="M9.09106 16.6637C9.09106 19.8854 11.7367 22.497 15.0002 22.497C18.2637 22.497 20.9092 19.8854 20.9092 16.6637C20.9092 13.442 18.2637 10.8304 15.0002 10.8304C11.7367 10.8304 9.09106 13.442 9.09106 16.6637ZM18.5455 16.6634C18.5455 18.5964 16.9581 20.1634 15 20.1634C13.0419 20.1634 11.4546 18.5964 11.4546 16.6634C11.4546 14.7304 13.0419 13.1634 15 13.1634C16.9581 13.1634 18.5455 14.7304 18.5455 16.6634Z" fill="#272525" style="fill:#272525;fill:color(display-p3 0.1529 0.1451 0.1451);fill-opacity:1;"/>
<path fill-rule="evenodd" clip-rule="evenodd" d="M9.01648 8.31643C9.10021 8.20152 9.1932 8.06085 9.31178 7.87117C9.35511 7.80186 9.47327 7.60942 9.56124 7.46614L9.66031 7.30497C10.64 5.72294 11.3522 4.99683 12.6364 4.99683H17.3636C18.6478 4.99683 19.36 5.72294 20.3397 7.30497L20.4387 7.466C20.5266 7.60926 20.6449 7.80188 20.6882 7.87117C20.8068 8.06085 20.8998 8.20152 20.9835 8.31643C21.0387 8.39221 21.087 8.45242 21.1263 8.49683H24.4545C26.4126 8.49683 28 10.0638 28 11.9968V22.4968C28 24.4298 26.4126 25.9968 24.4545 25.9968H5.54545C3.58735 25.9968 2 24.4298 2 22.4968V11.9968C2 10.0638 3.58735 8.49683 5.54545 8.49683H8.87369C8.91303 8.45242 8.96126 8.39221 9.01648 8.31643ZM5.54559 10.8303C4.89289 10.8303 4.36377 11.3526 4.36377 11.997V22.497C4.36377 23.1413 4.89289 23.6636 5.54559 23.6636H24.4547C25.1074 23.6636 25.6365 23.1413 25.6365 22.497V11.997C25.6365 11.3526 25.1074 10.8303 24.4547 10.8303H20.9092C20.1241 10.8303 19.5946 10.4061 19.0649 9.67909C18.943 9.51181 18.8222 9.32916 18.6769 9.09673C18.6271 9.01709 18.4979 8.80652 18.4092 8.66204L18.3232 8.52214C17.7886 7.65896 17.4663 7.33029 17.3638 7.33029H12.6365C12.534 7.33029 12.2116 7.65896 11.6771 8.52214L11.5912 8.66197C11.5025 8.80645 11.3731 9.01708 11.3233 9.09673C11.178 9.32916 11.0573 9.51181 10.9354 9.67909C10.4057 10.4061 9.87617 10.8303 9.09104 10.8303H5.54559Z" fill="#272525" style="fill:#272525;fill:color(display-p3 0.1529 0.1451 0.1451);fill-opacity:1;"/>
</svg>
