<svg width="30" height="30" viewBox="0 0 30 30" fill="none" xmlns="http://www.w3.org/2000/svg">
<path fill-rule="evenodd" clip-rule="evenodd" d="M15 28C22.1803 28 28 22.1798 28 15C28 7.82019 22.1803 2 15 2C7.81967 2 2 7.82019 2 15C2 22.1798 7.81967 28 15 28ZM13.6999 8.49999C13.6999 7.78202 14.2819 7.2 14.9999 7.2C15.7179 7.2 16.2999 7.78204 16.2999 8.50001L16.2998 16.1464L19.4813 17.7371C20.1235 18.0582 20.3838 18.8391 20.0627 19.4813C19.7416 20.1234 18.9607 20.3837 18.3186 20.0626L13.6998 17.7533L13.6999 8.49999Z" fill="#272525" style="fill:#272525;fill:color(display-p3 0.1529 0.1451 0.1451);fill-opacity:1;"/>
</svg>
