<svg width="30" height="30" viewBox="0 0 30 30" fill="none" xmlns="http://www.w3.org/2000/svg">
<path fill-rule="evenodd" clip-rule="evenodd" d="M13.5706 10.4226C14.2183 9.54986 14.4505 8.63005 13.7181 7.81813C12.0744 5.51816 10.9689 4.09586 10.2756 3.41092C8.95736 2.10875 6.78889 2.28489 5.64724 3.4098C5.03404 4.01401 4.82645 4.22149 4.19683 4.86101C0.68977 8.36995 2.82856 15.7877 8.51424 21.479C14.1986 27.169 21.6157 29.3089 25.1301 25.7926C25.7111 25.2325 26.203 24.7403 26.591 24.3302C27.7098 23.1477 27.8797 21.0749 26.5836 19.7283C25.9192 19.0379 24.5629 17.9858 22.1662 16.2714C21.4321 15.615 20.5618 15.7573 19.7638 16.2808C19.38 16.5326 19.1006 16.7873 18.5732 17.3153L17.6154 18.2737C17.4892 18.3999 15.7762 17.542 14.1134 15.8775C12.4496 14.2122 11.5924 12.4991 11.7179 12.3735C11.9769 12.1146 12.2963 11.7949 12.6764 11.4145C12.8437 11.247 12.9237 11.1659 13.0264 11.0581C13.2401 10.8334 13.4171 10.6295 13.5706 10.4226ZM19.3822 20.0414L20.3402 19.0829C20.6304 18.7923 20.8186 18.6137 20.9716 18.4905C23.0712 19.9982 24.2872 20.9463 24.7838 21.4624C25.082 21.7722 25.0357 22.3376 24.7765 22.6116C24.4177 22.9907 23.9516 23.4571 23.3797 24.0087C21.1071 26.2822 15.1199 24.5548 10.2814 19.7116C5.44143 14.8669 3.71485 8.87873 5.97024 6.6221C6.59732 5.98522 6.796 5.78664 7.40044 5.19106C7.62708 4.96775 8.2444 4.91761 8.52009 5.18995C9.05393 5.71729 10.0442 6.98523 11.5009 9.01441C11.4255 9.10803 11.3313 9.21383 11.2167 9.3343C11.1325 9.42272 11.0624 9.49376 10.9092 9.64714C10.5295 10.0273 10.2103 10.3466 9.9517 10.6052C8.32276 12.234 9.71002 15.0061 12.3462 17.6449C14.9806 20.2819 17.7538 21.6707 19.3822 20.0414Z" fill="#272525" style="fill:#272525;fill:color(display-p3 0.1529 0.1451 0.1451);fill-opacity:1;"/>
</svg>
